<?xml version="1.0" encoding="UTF-8"?><svg id="Layer_2" xmlns="http://www.w3.org/2000/svg" viewBox="0 0 690.829 373.7539" fill="#fff"><g id="Components"><g id="a788931f-b9ef-47d9-b60f-7120e08327b9_4"><path d="m363.5339,357.7276c0-9.1582,5.7021-16.1562,14.8164-16.1562,7.6035,0,12.0957,4.5361,12.7432,10.4106h-6.2197c-.5615-3.1099-2.8945-5.1406-6.5234-5.1406-5.7021,0-8.4229,4.752-8.4229,10.8862,0,6.3066,3.2822,10.8423,8.4668,10.8423,3.6709,0,6.2627-2.2031,6.6523-5.4429h6.1338c-.1729,2.7217-1.3389,5.3564-3.4131,7.3003-2.1162,1.9873-5.0967,3.2832-9.373,3.2832-8.6836,0-14.8604-6.6958-14.8604-15.9829Z"/><path d="m398.7429,342.1763h14.1689c5.9609,0,9.9355,3.4556,9.9355,8.5962,0,3.6289-1.6846,6.3936-5.6592,7.4731v.1299c2.8516.8208,4.3203,2.4619,4.709,6.2202.4316,4.3628.2588,7.6895,1.3389,8.1646v.3022h-6.0049c-.7773-.3457-.8633-3.8013-1.123-7.1274-.2588-3.3696-2.1592-5.2705-6.0469-5.2705h-5.0547v12.3979h-6.2637v-30.8862Zm6.2637,13.6504h6.6523c3.4131,0,5.0977-1.771,5.0977-4.2334,0-2.5054-1.5986-4.3628-4.9248-4.3628h-6.8252v8.5962Z"/><path d="m431.1872,342.1763h22.7217v5.27h-16.458v6.9116h14.4277v5.1406h-14.4277v8.3369h16.5879v5.2271h-22.8516v-30.8862Z"/><path d="m470.9743,342.1763h6.4795l10.8867,30.8862h-6.5234l-2.0732-6.5659h-11.1455l-2.0303,6.5659h-6.3496l10.7559-30.8862Zm-.9072,19.5254h8.165l-2.7646-8.8989c-.5186-1.6416-1.2529-4.7515-1.2529-4.7515h-.0869s-.7773,3.1099-1.2959,4.7515l-2.7646,8.8989Z"/><path d="m489.7683,342.1763h24.8389v5.27h-9.2871v25.6162h-6.2637v-25.6162h-9.2881v-5.27Z"/><path d="m522.1267,342.1763h6.2637v30.8862h-6.2637v-30.8862Z"/><path d="m535.2165,342.1763h6.5664l5.4424,17.8838c.6055,2.0303,1.3398,4.9243,1.3398,4.9243h.0859s.7344-2.9375,1.3389-4.9243l5.4004-17.8838h6.3496l-10.4102,30.8862h-5.7021l-10.4111-30.8862Z"/><path d="m568.5251,342.1763h22.7217v5.27h-16.458v6.9116h14.4277v5.1406h-14.4277v8.3369h16.5879v5.2271h-22.8516v-30.8862Z"/><path d="m609.8259,357.7276c0-9.1582,5.7021-16.1562,14.8164-16.1562,7.6035,0,12.0957,4.5361,12.7432,10.4106h-6.2197c-.5615-3.1099-2.8945-5.1406-6.5234-5.1406-5.7021,0-8.4229,4.752-8.4229,10.8862,0,6.3066,3.2822,10.8423,8.4668,10.8423,3.6709,0,6.2627-2.2031,6.6523-5.4429h6.1338c-.1729,2.7217-1.3389,5.3564-3.4131,7.3003-2.1162,1.9873-5.0967,3.2832-9.373,3.2832-8.6836,0-14.8604-6.6958-14.8604-15.9829Z"/><path d="m643.696,357.6841c0-9.2441,5.7881-16.1128,14.9033-16.1128s14.8594,6.8687,14.8594,16.1128-5.7451,16.0698-14.8594,16.0698-14.9033-6.8257-14.9033-16.0698Zm23.3701,0c0-6.1772-2.7646-10.9722-8.4238-10.9722s-8.5527,4.7949-8.5527,10.9722c0,6.1343,2.8936,10.9292,8.5527,10.9292s8.4238-4.7949,8.4238-10.9292Z"/><path d="m678.6472,366.7988h6.3066v6.2637h-6.3066v-6.2637Z"/><path d="m217.2765,71.2498l-52.822,18.3283s9.4739,16.2546,9.4739,23.0741v151.5482l-9,24.9532h61.3481l-9-24.9532V71.2498Z"/><path d="m378.0494,71.0771s-36.2568-14.0475-60.4509,7.8726c-10.8244,9.807-18.2151,17.5529-22.6819,22.6034v-30.3033l-52.8223,18.3283s9.4739,16.2546,9.4739,23.0741v151.5482l-9,24.9532h61.3484l-9-24.9532V118.5423c6.2563-7.5226,16.8098-18.5085,25.5786-19.206,13.4104-1.0667,23.0491,10.8911,23.0491,10.8911,0,0,3.3937-7.3098,14.4872-19.8414,11.4873-12.9765,20.0179-19.3089,20.0179-19.3089Z"/><path d="m411.8741,250.5671c-28.7888-20.4829-34.3521-59.8214-28.6902-97.0765h116.9343c.123-43.9146-20.123-85.0882-68.0967-85.5245-47.9736-.4364-85.0264,43.9337-90.115,100.2015-5.0886,56.2678,20.5886,125.7998,84.7668,124.7444,64.1782-1.0554,74.02-52.3842,74.02-52.3842h-8.1982s-24.7026,49.8247-80.6211,10.0394Zm21.3971-166.7831c35.0134,1.7438,26.162,54.8356,26.162,54.8356h-73.6436s7.4815-56.8278,47.4815-54.8356Z"/><path d="m624.4806,289.1536h66.3484l-9-24.9532.2146-121.1533s1.9426-73.9134-53.0527-75.9676c0,0-39.8496-3.2072-64.4514,24.8029v-20.6329l-52.822,18.3284s9.4739,16.2546,9.4739,23.0741v151.5483l-9,24.9532h61.3481l-9-24.9532V104.6846c4.876-3.192,26.7117-17.4642,51.3704-7.3605,50.5854,20.7271,8.5708,191.8295,8.5708,191.8295Z"/><path d="m192.4667,49.9198c15.4041,1.2146,28.1629-11.5442,26.9484-26.9484-.9555-12.1179-10.7732-21.9358-22.8911-22.8913-15.4043-1.2147-28.1633,11.5444-26.9486,26.9487.9556,12.1179,10.7734,21.9356,22.8913,22.891Z"/><path d="m131.0803,281.0459c-17.6027,13.11-39.1158,15.87-54.0732,15.88h-.0623c-37.4662,0-73.0135-15.4-74.5175-16.05l-2.4273-1.07v-47.13l6.9393,6.06c4.4396,3.89,8.6094,8.08,12.6443,12.14,11.2337,11.31,21.8346,22,38.2859,26.65,14.1275,3.99,39.6134,5.1,51.9683-8.2009,19.297-20.8157,7.6229-49.7568-14.7403-62.2088-31.8739-17.7476-76.7274-20.5493-91.0522-58.7302-12.6962-33.84,8.7236-64.35,36.4499-77,22.1872-10.11,47.6211-11.24,75.5859-3.35,1.4212.4,8.9103,2.53,16.2127,4.91,13.3496,4.35,16.9904,8.38,16.9904,8.38,0,0-.6637,8.21-3.1533,31.14l-.9854,9.0699-6.2548-6.84c-9.6363-10.54-20.8283-19.83-32.3836-26.87-15.4137-9.4-34.624-11.96-48.9385-6.53-16.389,6.22-24.8738,23.84-18.9082,39.2933,9.0933,23.5641,37.262,31.5073,59.0645,40.0532,24.2528,9.5064,47.3692,22.7478,57.3681,47.3335,11.3061,27.8-3.5267,57.8099-24.0128,73.0699Z"/></g></g></svg>